<?xml version="1.0" encoding="UTF-8"?><svg id="Layer_1" xmlns="http://www.w3.org/2000/svg" viewBox="0 0 15.76 15.74"><defs><style>.cls-1{fill:#fff;fill-rule:evenodd;}</style></defs><path class="cls-1" d="M10.78,5.1c1.16-1.18,1.15-3.08-.03-4.24-1.17-1.15-3.04-1.15-4.21,0L.88,6.52c-1.17,1.17-1.17,3.07,0,4.24,1.17,1.17,3.07,1.17,4.24,0l5.66-5.66h0Zm-6.41-.66L7.24,1.57c.78-.78,2.05-.78,2.83,0,.78,.78,.78,2.05,0,2.83l-2.88,2.88s-2.83-2.83-2.83-2.83Zm7.39,3.29c2.21,0,4,1.79,4,4s-1.79,4-4,4-4-1.79-4-4,1.79-4,4-4Zm-.5,1.04c-1.63,.27-2.74,1.82-2.46,3.45,.21,1.26,1.2,2.25,2.46,2.46v-5.92h0Zm1,5.92c1.63-.27,2.74-1.82,2.46-3.45-.21-1.26-1.2-2.25-2.46-2.46v5.92Z"/></svg>