<?xml version="1.0" encoding="UTF-8"?><svg id="Layer_1" xmlns="http://www.w3.org/2000/svg" viewBox="0 0 16 16"><defs><style>.cls-1{fill:#fff;}</style></defs><path class="cls-1" d="M8,16c4.42,0,8-3.58,8-8S12.42,0,8,0,0,3.58,0,8s3.58,8,8,8Zm-1-9.5c0,.83-.45,1.5-1,1.5s-1-.67-1-1.5,.45-1.5,1-1.5,1,.67,1,1.5Zm-2.72,3.07c.24-.14,.54-.06,.68,.18,.63,1.08,1.78,1.75,3.03,1.75,1.25,0,2.41-.67,3.03-1.75,.14-.24,.44-.32,.68-.19,.24,.14,.32,.44,.19,.68,0,0,0,0,0,0-.8,1.39-2.29,2.25-3.9,2.25-1.61,0-3.09-.86-3.9-2.25-.14-.24-.06-.54,.18-.68Zm5.72-1.57c-.55,0-1-.67-1-1.5s.45-1.5,1-1.5,1,.67,1,1.5-.45,1.5-1,1.5Z"/></svg>