<?xml version="1.0" encoding="utf-8"?>
<!-- Generator: Adobe Illustrator 26.5.0, SVG Export Plug-In . SVG Version: 6.00 Build 0)  -->
<svg version="1.1" id="Layer_1" xmlns="http://www.w3.org/2000/svg" xmlns:xlink="http://www.w3.org/1999/xlink" x="0px" y="0px"
	 viewBox="0 0 16 16" style="enable-background:new 0 0 16 16;" xml:space="preserve">
<style type="text/css">
	.st0{fill:#FFFFFF;stroke:#FFFFFF;stroke-miterlimit:10;}
</style>
<path class="st0" d="M11,6c0,1.66-1.34,3-3,3S5,7.66,5,6s1.34-3,3-3S11,4.34,11,6z"/>
<path class="st0" d="M0,8c0-4.42,3.58-8,8-8s8,3.58,8,8s-3.58,8-8,8S0,12.42,0,8z M8,1C4.13,1,1,4.13,1,8
	c0,1.59,0.54,3.13,1.53,4.37C3.24,11.23,4.8,10,8,10s4.76,1.23,5.47,2.37c2.41-3.02,1.92-7.42-1.1-9.84C11.13,1.54,9.59,1,8,1z"/>
</svg>
