<?xml version="1.0" encoding="UTF-8"?><svg id="Layer_1" xmlns="http://www.w3.org/2000/svg" viewBox="0 0 1585.82 1400"><defs><style>.cls-1{fill:#fff;}</style></defs><path class="cls-1" d="M295.55,.01C135.87,.01,5.47,258.82,.24,580.9h-.24v796.47l12.1,12.12c14.01,14.01,36.94,14.01,50.95,0l12.11-12.12c14.01-13.99,36.93-13.99,50.94,0l12.12,12.12c14.01,14.01,36.91,14.01,50.94,0l12.11-12.12c14.01-13.99,36.94-13.99,50.95,0l12.1,12.12c14.01,14.01,36.95,14.01,50.94,0l12.12-12.12c14.01-13.99,36.94-13.99,50.95,0l12.11,12.12c14.01,14.01,36.94,14.01,50.94,0l12.1-12.12c14.01-13.99,36.94-13.99,50.96,0l12.1,12.12c14.01,14.01,36.94,14.01,50.96,0l12.11-12.12c14.01-13.99,36.91-13.99,50.95,0l12.1,12.12c14.01,14.01,36.95,14.01,50.94,0l12.12-12.12c14.01-13.99,36.93-13.99,50.94,0l12.11,12.12c14,14.01,36.94,14.01,50.95,0l12.1-12.12c14.01-13.99,36.93-13.99,50.95,0l12.11,12.12c14.01,14.01,36.93,14.01,50.94,0l12.1-12.12s-.07-798.7,.02-799.35c4.67-270.32,93.07-492.96,218.31-578.02H295.55Zm501.47,482.59h78.35c13.61,0,24.63,11.09,24.63,24.78s-11.05,24.78-24.63,24.78h-78.35c-13.62,0-24.66-11.11-24.66-24.78,.01-13.69,11.04-24.78,24.66-24.78Zm-178.71,0h78.34c13.62,0,24.66,11.09,24.66,24.78s-11.03,24.78-24.66,24.78h-78.34c-13.61,0-24.65-11.11-24.65-24.78s11.04-24.78,24.65-24.78Zm-178.71,0h78.35c13.62,0,24.66,11.09,24.66,24.78s-11.03,24.78-24.66,24.78h-78.35c-13.61,0-24.63-11.11-24.63-24.78-.01-13.69,11.02-24.78,24.63-24.78Zm-178.71,0h78.35c13.62,0,24.65,11.09,24.65,24.78s-11.02,24.78-24.65,24.78h-78.35c-13.61,0-24.66-11.11-24.66-24.78,.01-13.69,11.05-24.78,24.66-24.78Zm-178.71,0h78.35c13.61,0,24.66,11.09,24.66,24.78s-11.05,24.78-24.66,24.78H82.18c-13.61,0-24.65-11.11-24.65-24.78,.01-13.69,11.05-24.78,24.65-24.78Z"/><g><path class="cls-1" d="M994.73,898.24v303.54h181.5c-79.16-53.77-143.57-162.54-181.5-303.54Z"/><path class="cls-1" d="M1290.3,.01C1127.31,.01,994.73,269.55,994.73,600.89s132.58,600.88,295.54,600.88,295.55-269.56,295.55-600.88C1585.83,269.55,1453.25,.01,1290.3,.01Zm24.75,822.44c-8.05,0-15.83-2.37-23.3-6.44-43.48-23.47-75.81-110.75-75.81-215.12s32.33-191.67,75.81-215.17c7.48-4.03,15.26-6.41,23.3-6.41,54.76,0,99.11,99.19,99.11,221.56,0,122.37-44.37,221.58-99.11,221.58Z"/></g></svg>