<?xml version="1.0" encoding="UTF-8"?><svg id="Layer_1" xmlns="http://www.w3.org/2000/svg" viewBox="0 0 16 15"><defs><style>.cls-1{fill:#fcfafa;}</style></defs><path class="cls-1" d="M5.07,.24c.14-.24,.45-.31,.69-.17s.31,.45,.17,.69L3.38,5H12.62L10.07,.76c-.14-.24-.06-.54,.17-.69s.54-.06,.69,.17l2.86,4.76h1.72c.28,0,.5,.22,.5,.5v2c0,.28-.22,.5-.5,.5h-.5v5c0,1.1-.9,2-2,2H3c-1.1,0-2-.9-2-2v-5H.5c-.28,0-.5-.22-.5-.5v-2c0-.28,.22-.5,.5-.5h1.72L5.07,.24h0Zm-1.57,9.26c0-.28-.22-.5-.5-.5s-.5,.22-.5,.5v3c0,.28,.22,.5,.5,.5s.5-.22,.5-.5v-3Zm2.5,0c0-.28-.22-.5-.5-.5s-.5,.22-.5,.5v3c0,.28,.22,.5,.5,.5s.5-.22,.5-.5v-3Zm2.5,0c0-.28-.22-.5-.5-.5s-.5,.22-.5,.5v3c0,.28,.22,.5,.5,.5s.5-.22,.5-.5v-3Zm2.5,0c0-.28-.22-.5-.5-.5s-.5,.22-.5,.5v3c0,.28,.22,.5,.5,.5s.5-.22,.5-.5v-3Zm2.5,0c0-.28-.22-.5-.5-.5s-.5,.22-.5,.5v3c0,.28,.22,.5,.5,.5s.5-.22,.5-.5v-3Z"/></svg>