<?xml version="1.0" encoding="utf-8"?>
<!-- Generator: Adobe Illustrator 26.5.0, SVG Export Plug-In . SVG Version: 6.00 Build 0)  -->
<svg version="1.1" id="Layer_1" xmlns="http://www.w3.org/2000/svg" xmlns:xlink="http://www.w3.org/1999/xlink" x="0px" y="0px"
	 viewBox="0 0 2200 1800" style="enable-background:new 0 0 2200 1800;" xml:space="preserve">
<g>
	<path d="M602.64,200c-159.68,0-290.08,258.81-295.31,580.89h-0.24v796.47l12.1,12.12c14.01,14.01,36.94,14.01,50.95,0l12.11-12.12
		c14.01-13.99,36.93-13.99,50.94,0l12.12,12.12c14.01,14.01,36.91,14.01,50.94,0l12.11-12.12c14.01-13.99,36.94-13.99,50.95,0
		l12.1,12.12c14.01,14.01,36.95,14.01,50.94,0l12.12-12.12c14.01-13.99,36.94-13.99,50.95,0l12.11,12.12
		c14.01,14.01,36.94,14.01,50.94,0l12.1-12.12c14.01-13.99,36.94-13.99,50.96,0l12.1,12.12c14.01,14.01,36.94,14.01,50.96,0
		l12.11-12.12c14.01-13.99,36.91-13.99,50.95,0l12.1,12.12c14.01,14.01,36.95,14.01,50.94,0l12.12-12.12
		c14.01-13.99,36.93-13.99,50.94,0l12.11,12.12c14,14.01,36.94,14.01,50.95,0l12.1-12.12c14.01-13.99,36.93-13.99,50.95,0
		l12.11,12.12c14.01,14.01,36.93,14.01,50.94,0l12.1-12.12c0,0-0.07-798.7,0.02-799.35c4.67-270.32,93.07-492.96,218.31-578.02
		H602.64z M1104.11,682.58h78.35c13.61,0,24.63,11.09,24.63,24.78c0,13.67-11.05,24.78-24.63,24.78h-78.35
		c-13.62,0-24.66-11.11-24.66-24.78C1079.46,693.67,1090.49,682.58,1104.11,682.58z M925.4,682.58h78.34
		c13.62,0,24.66,11.09,24.66,24.78c0,13.67-11.03,24.78-24.66,24.78H925.4c-13.61,0-24.65-11.11-24.65-24.78
		C900.75,693.67,911.79,682.58,925.4,682.58z M746.69,682.58h78.35c13.62,0,24.66,11.09,24.66,24.78
		c0,13.67-11.03,24.78-24.66,24.78h-78.35c-13.61,0-24.63-11.11-24.63-24.78C722.05,693.67,733.08,682.58,746.69,682.58z
		 M567.98,682.58h78.35c13.62,0,24.65,11.09,24.65,24.78c0,13.67-11.02,24.78-24.65,24.78h-78.35c-13.61,0-24.66-11.11-24.66-24.78
		C543.33,693.67,554.37,682.58,567.98,682.58z M389.27,682.58h78.35c13.61,0,24.66,11.09,24.66,24.78
		c0,13.67-11.05,24.78-24.66,24.78h-78.35c-13.61,0-24.65-11.11-24.65-24.78C364.63,693.67,375.67,682.58,389.27,682.58z"/>
	<g>
		<path d="M1301.82,1098.23v303.54h181.5C1404.16,1348,1339.75,1239.23,1301.82,1098.23z"/>
		<path d="M1597.39,200c-162.99,0-295.57,269.54-295.57,600.88c0,331.32,132.58,600.88,295.54,600.88
			c162.97,0,295.55-269.56,295.55-600.88C1892.92,469.54,1760.34,200,1597.39,200z M1622.14,1022.44c-8.05,0-15.83-2.37-23.3-6.44
			c-43.48-23.47-75.81-110.75-75.81-215.12c0-104.39,32.33-191.67,75.81-215.17c7.48-4.03,15.26-6.41,23.3-6.41
			c54.76,0,99.11,99.19,99.11,221.56C1721.26,923.23,1676.88,1022.44,1622.14,1022.44z"/>
	</g>
</g>
</svg>
